<svg width="40" height="40" viewBox="0 0 40 40" fill="none" xmlns="http://www.w3.org/2000/svg">
<path d="M23.5369 17.4306C22.7439 16.3204 21.4433 15.5908 19.9842 15.5908C18.525 15.5908 17.2245 16.3204 16.4314 17.4306C15.9239 18.1602 15.6067 19.0484 15.6067 20C15.6067 22.4108 17.5734 24.3775 19.9842 24.3775C22.395 24.3775 24.3616 22.4108 24.3616 20C24.3616 19.0484 24.0444 18.1602 23.5369 17.4306Z" fill="#8B8B8B"/>
<path d="M26.2966 17.4622C26.6138 18.0966 26.8041 19.1116 26.8041 19.9998C26.8041 23.7429 23.7589 26.8198 19.9841 26.8198C16.2093 26.8198 13.1641 23.7746 13.1641 19.9998C13.1641 19.0799 13.3544 18.0966 13.6717 17.4622H9.83344V27.6446C9.83344 28.9768 11.0071 30.1505 12.3394 30.1505H27.6288C28.9611 30.1505 30.1348 28.9768 30.1348 27.6446V17.4622H26.2966Z" fill="#8B8B8B"/>
<path d="M28.9929 10.4201H25.3132V14.639H29.5004V10.9594V10.3884L28.9929 10.4201Z" fill="#8B8B8B"/>
<path d="M29.9445 0.0158691H10.0238C4.50436 0.0158691 0 4.52023 0 10.0397V29.9921C0 35.4798 4.50436 39.9841 10.0238 39.9841H29.9762C35.4956 39.9841 40 35.4798 40 29.9604V10.0397C39.9683 4.52023 35.4639 0.0158691 29.9445 0.0158691ZM32.3553 17.4306V27.6447C32.3553 30.3093 30.2934 32.3711 27.6289 32.3711H12.3394C9.67486 32.3711 7.61301 30.3093 7.61301 27.6447V17.4306V12.3553C7.61301 9.69073 9.67486 7.62887 12.3394 7.62887H27.6289C30.2934 7.62887 32.3553 9.69073 32.3553 12.3553V17.4306Z" fill="#8B8B8B"/>
</svg>
