<svg width="409" height="58" viewBox="0 0 409 58" fill="none" xmlns="http://www.w3.org/2000/svg">
<path d="M107.94 22.28C105.847 22.28 104.107 21.58 102.72 20.18C101.347 18.7933 100.66 17.0667 100.66 15C100.66 12.92 101.347 11.1933 102.72 9.82C104.107 8.42 105.847 7.72 107.94 7.72C109.207 7.72 110.373 8.02 111.44 8.62C112.52 9.20667 113.36 10.0067 113.96 11.02L111.58 12.4C111.233 11.7733 110.74 11.2867 110.1 10.94C109.46 10.58 108.74 10.4 107.94 10.4C106.58 10.4 105.48 10.8267 104.64 11.68C103.813 12.5467 103.4 13.6533 103.4 15C103.4 16.3333 103.813 17.4333 104.64 18.3C105.48 19.1533 106.58 19.58 107.94 19.58C108.74 19.58 109.46 19.4067 110.1 19.06C110.753 18.7 111.247 18.2133 111.58 17.6L113.96 18.98C113.36 19.9933 112.52 20.8 111.44 21.4C110.373 21.9867 109.207 22.28 107.94 22.28ZM127.299 20.18C125.885 21.58 124.165 22.28 122.139 22.28C120.112 22.28 118.392 21.58 116.979 20.18C115.579 18.7533 114.879 17.0267 114.879 15C114.879 12.96 115.579 11.24 116.979 9.84C118.392 8.42667 120.112 7.72 122.139 7.72C124.165 7.72 125.885 8.42667 127.299 9.84C128.712 11.24 129.419 12.96 129.419 15C129.419 17.04 128.712 18.7667 127.299 20.18ZM118.919 18.3C119.772 19.1533 120.845 19.58 122.139 19.58C123.432 19.58 124.505 19.1533 125.359 18.3C126.225 17.4333 126.659 16.3333 126.659 15C126.659 13.6667 126.225 12.5667 125.359 11.7C124.492 10.8333 123.419 10.4 122.139 10.4C120.859 10.4 119.785 10.8333 118.919 11.7C118.052 12.5667 117.619 13.6667 117.619 15C117.619 16.3333 118.052 17.4333 118.919 18.3ZM142.219 8H145.059V22H142.319V12.92L138.379 19.42H138.059L134.119 12.94V22H131.359V8H134.199L138.219 14.62L142.219 8ZM152.887 22.28C151.327 22.28 150.047 21.84 149.047 20.96C148.047 20.08 147.547 18.9 147.547 17.42V8H150.287V17.2C150.287 17.9467 150.501 18.5333 150.927 18.96C151.367 19.3733 152.021 19.58 152.887 19.58C153.754 19.58 154.401 19.3733 154.827 18.96C155.267 18.5333 155.487 17.9467 155.487 17.2V8H158.247V17.42C158.247 18.9 157.747 20.08 156.747 20.96C155.747 21.84 154.461 22.28 152.887 22.28ZM168.834 16.54V8H171.594V22H169.494L163.494 13.44V22H160.734V8H162.834L168.834 16.54ZM174.191 22V8H176.951V22H174.191ZM178.502 8H188.802V10.64H185.022V22H182.262V10.64H178.502V8ZM201.327 22H198.327L197.487 19.48H191.907L191.067 22H188.087L192.987 8H196.407L201.327 22ZM194.707 11.18L192.787 16.9H196.627L194.707 11.18ZM200.631 8H210.931V10.64H207.151V22H204.391V10.64H200.631V8ZM212.472 8H218.032C219.952 8 221.552 8.67333 222.832 10.02C224.125 11.3533 224.772 13.0133 224.772 15C224.772 16.9867 224.125 18.6467 222.832 19.98C221.552 21.3267 219.952 22 218.032 22H212.472V8ZM215.232 19.36H218.032C219.245 19.36 220.232 18.96 220.992 18.16C221.752 17.3333 222.132 16.28 222.132 15C222.132 13.7067 221.752 12.66 220.992 11.86C220.232 11.0467 219.245 10.64 218.032 10.64H215.232V19.36ZM229.49 16.22V19.36H235.39V22H226.73V8H235.29V10.64H229.49V13.62H234.79V16.22H229.49ZM245.095 8V19.36H250.435V22H242.335V8H245.095ZM264.394 22H261.394L260.554 19.48H254.974L254.134 22H251.154L256.054 8H259.474L264.394 22ZM257.774 11.18L255.854 16.9H259.694L257.774 11.18ZM282.473 14.48H289.493V15.56C289.493 17.56 288.853 19.18 287.573 20.42C286.293 21.66 284.64 22.28 282.613 22.28C280.453 22.28 278.66 21.58 277.233 20.18C275.82 18.7667 275.113 17.0467 275.113 15.02C275.113 12.98 275.813 11.2533 277.213 9.84C278.626 8.42667 280.373 7.72 282.453 7.72C283.746 7.72 284.933 8.01333 286.013 8.6C287.093 9.18667 287.94 9.98 288.553 10.98L286.193 12.34C285.86 11.7667 285.353 11.3 284.673 10.94C283.993 10.58 283.246 10.4 282.433 10.4C281.086 10.4 279.986 10.84 279.133 11.72C278.28 12.5733 277.853 13.6733 277.853 15.02C277.853 16.34 278.286 17.4333 279.153 18.3C280.02 19.1533 281.18 19.58 282.633 19.58C283.686 19.58 284.566 19.3467 285.273 18.88C285.98 18.4133 286.46 17.76 286.713 16.92H282.473V14.48ZM294.216 16.22V19.36H300.116V22H291.456V8H300.016V10.64H294.216V13.62H299.516V16.22H294.216ZM310.162 16.54V8H312.922V22H310.822L304.822 13.44V22H302.062V8H304.162L310.162 16.54ZM318.279 16.22V19.36H324.179V22H315.519V8H324.079V10.64H318.279V13.62H323.579V16.22H318.279ZM336.784 22H333.804L330.984 17.14H328.884V22H326.124V8H331.724C333.018 8 334.118 8.45333 335.024 9.36C335.931 10.2667 336.384 11.36 336.384 12.64C336.384 13.5067 336.138 14.3133 335.644 15.06C335.151 15.7933 334.498 16.3467 333.684 16.72L336.784 22ZM331.724 10.58H328.884V14.72H331.724C332.244 14.72 332.691 14.52 333.064 14.12C333.438 13.7067 333.624 13.2133 333.624 12.64C333.624 12.0667 333.438 11.58 333.064 11.18C332.691 10.78 332.244 10.58 331.724 10.58ZM350.409 22H347.409L346.569 19.48H340.989L340.149 22H337.169L342.069 8H345.489L350.409 22ZM343.789 11.18L341.869 16.9H345.709L343.789 11.18ZM357.901 22.28C355.808 22.28 354.068 21.58 352.681 20.18C351.308 18.7933 350.621 17.0667 350.621 15C350.621 12.92 351.308 11.1933 352.681 9.82C354.068 8.42 355.808 7.72 357.901 7.72C359.168 7.72 360.334 8.02 361.401 8.62C362.481 9.20667 363.321 10.0067 363.921 11.02L361.541 12.4C361.194 11.7733 360.701 11.2867 360.061 10.94C359.421 10.58 358.701 10.4 357.901 10.4C356.541 10.4 355.441 10.8267 354.601 11.68C353.774 12.5467 353.361 13.6533 353.361 15C353.361 16.3333 353.774 17.4333 354.601 18.3C355.441 19.1533 356.541 19.58 357.901 19.58C358.701 19.58 359.421 19.4067 360.061 19.06C360.714 18.7 361.208 18.2133 361.541 17.6L363.921 18.98C363.321 19.9933 362.481 20.8 361.401 21.4C360.334 21.9867 359.168 22.28 357.901 22.28ZM365.616 22V8H368.376V22H365.616ZM375.988 6.58L377.588 3.84H380.688L378.468 6.58H375.988ZM382.748 20.18C384.161 18.7667 384.868 17.04 384.868 15C384.868 12.96 384.161 11.24 382.748 9.84C381.335 8.42667 379.615 7.72 377.588 7.72C375.561 7.72 373.841 8.42667 372.428 9.84C371.028 11.24 370.328 12.96 370.328 15C370.328 17.0267 371.028 18.7533 372.428 20.18C373.841 21.58 375.561 22.28 377.588 22.28C379.615 22.28 381.335 21.58 382.748 20.18ZM374.368 18.3C373.501 17.4333 373.068 16.3333 373.068 15C373.068 13.6667 373.501 12.5667 374.368 11.7C375.235 10.8333 376.308 10.4 377.588 10.4C378.868 10.4 379.941 10.8333 380.808 11.7C381.675 12.5667 382.108 13.6667 382.108 15C382.108 16.3333 381.675 17.4333 380.808 18.3C379.955 19.1533 378.881 19.58 377.588 19.58C376.295 19.58 375.221 19.1533 374.368 18.3ZM104.06 41.22V44.36H109.96V47H101.3V33H109.86V35.64H104.06V38.62H109.36V41.22H104.06ZM114.665 33V44.36H120.005V47H111.905V33H114.665ZM131.353 47.28C129.98 47.28 128.82 46.9733 127.873 46.36C126.927 45.7467 126.253 44.9 125.853 43.82L128.213 42.44C128.76 43.8667 129.833 44.58 131.433 44.58C132.18 44.58 132.74 44.4467 133.113 44.18C133.487 43.9133 133.673 43.5533 133.673 43.1C133.673 42.6067 133.453 42.2267 133.013 41.96C132.573 41.68 131.787 41.38 130.653 41.06C129.427 40.6867 128.46 40.2533 127.753 39.76C126.873 39.1067 126.433 38.1467 126.433 36.88C126.433 35.6 126.88 34.5933 127.773 33.86C128.667 33.1 129.753 32.72 131.033 32.72C132.153 32.72 133.147 32.9933 134.013 33.54C134.88 34.0867 135.553 34.86 136.033 35.86L133.713 37.2C133.153 36 132.26 35.4 131.033 35.4C130.473 35.4 130.027 35.5333 129.693 35.8C129.36 36.0533 129.193 36.3867 129.193 36.8C129.193 37.24 129.373 37.6 129.733 37.88C130.133 38.16 130.84 38.4533 131.853 38.76L132.813 39.08C132.987 39.1333 133.287 39.2467 133.713 39.42C134.113 39.5667 134.407 39.7067 134.593 39.84C135.247 40.24 135.687 40.6533 135.913 41.08C136.26 41.64 136.433 42.3 136.433 43.06C136.433 44.3533 135.96 45.38 135.013 46.14C134.067 46.9 132.847 47.28 131.353 47.28ZM140.896 41.22V44.36H146.796V47H138.136V33H146.696V35.64H140.896V38.62H146.196V41.22H140.896ZM155.364 39.48H162.384V40.56C162.384 42.56 161.744 44.18 160.464 45.42C159.184 46.66 157.53 47.28 155.504 47.28C153.344 47.28 151.55 46.58 150.124 45.18C148.71 43.7667 148.004 42.0467 148.004 40.02C148.004 37.98 148.704 36.2533 150.104 34.84C151.517 33.4267 153.264 32.72 155.344 32.72C156.637 32.72 157.824 33.0133 158.904 33.6C159.984 34.1867 160.83 34.98 161.444 35.98L159.084 37.34C158.75 36.7667 158.244 36.3 157.564 35.94C156.884 35.58 156.137 35.4 155.324 35.4C153.977 35.4 152.877 35.84 152.024 36.72C151.17 37.5733 150.744 38.6733 150.744 40.02C150.744 41.34 151.177 42.4333 152.044 43.3C152.91 44.1533 154.07 44.58 155.524 44.58C156.577 44.58 157.457 44.3467 158.164 43.88C158.87 43.4133 159.35 42.76 159.604 41.92H155.364V39.48ZM167.107 33V44.36H172.447V47H164.347V33H167.107ZM176.775 41.22V44.36H182.675V47H174.015V33H182.575V35.64H176.775V38.62H182.075V41.22H176.775ZM195.98 39.8L200.28 47H197.14L194.42 42.44L191.7 47H188.58L192.86 39.82L188.8 33H191.92L194.42 37.2L196.92 33H200.04L195.98 39.8ZM208.187 39.8L212.487 47H209.347L206.627 42.44L203.907 47H200.787L205.067 39.82L201.007 33H204.127L206.627 37.2L209.127 33H212.247L208.187 39.8ZM214.034 47V33H216.794V47H214.034ZM219.866 44.24H222.666L221.166 49.8H219.066L219.866 44.24ZM234.732 47.28C233.359 47.28 232.199 46.9733 231.252 46.36C230.306 45.7467 229.632 44.9 229.232 43.82L231.592 42.44C232.139 43.8667 233.212 44.58 234.812 44.58C235.559 44.58 236.119 44.4467 236.492 44.18C236.866 43.9133 237.052 43.5533 237.052 43.1C237.052 42.6067 236.832 42.2267 236.392 41.96C235.952 41.68 235.166 41.38 234.032 41.06C232.806 40.6867 231.839 40.2533 231.132 39.76C230.252 39.1067 229.812 38.1467 229.812 36.88C229.812 35.6 230.259 34.5933 231.152 33.86C232.046 33.1 233.132 32.72 234.412 32.72C235.532 32.72 236.526 32.9933 237.392 33.54C238.259 34.0867 238.932 34.86 239.412 35.86L237.092 37.2C236.532 36 235.639 35.4 234.412 35.4C233.852 35.4 233.406 35.5333 233.072 35.8C232.739 36.0533 232.572 36.3867 232.572 36.8C232.572 37.24 232.752 37.6 233.112 37.88C233.512 38.16 234.219 38.4533 235.232 38.76L236.192 39.08C236.366 39.1333 236.666 39.2467 237.092 39.42C237.492 39.5667 237.786 39.7067 237.972 39.84C238.626 40.24 239.066 40.6533 239.292 41.08C239.639 41.64 239.812 42.3 239.812 43.06C239.812 44.3533 239.339 45.38 238.392 46.14C237.446 46.9 236.226 47.28 234.732 47.28ZM244.275 33V44.36H249.615V47H241.515V33H244.275Z" fill="#181818"/>
<rect width="80" height="58" rx="7" fill="#5E4E4E"/>
</svg>
